<svg width="119" height="31" viewBox="0 0 119 31" fill="none" xmlns="http://www.w3.org/2000/svg">
<mask id="path-1-inside-1" fill="white">
<path d="M26.1868 18.0687C26.1868 24.1302 21.2729 29.044 15.2114 29.044C9.14991 29.044 4.23608 24.1302 4.23608 18.0687C4.23608 12.0071 9.14991 7.09332 15.2114 7.09332C21.2729 7.09332 26.1868 12.0071 26.1868 18.0687ZM8.46159 18.0687C8.46159 21.7965 11.4836 24.8185 15.2114 24.8185C18.9392 24.8185 21.9613 21.7965 21.9613 18.0687C21.9613 14.3408 18.9392 11.3188 15.2114 11.3188C11.4836 11.3188 8.46159 14.3408 8.46159 18.0687Z"/>
</mask>
<path d="M26.1868 18.0687C26.1868 24.1302 21.2729 29.044 15.2114 29.044C9.14991 29.044 4.23608 24.1302 4.23608 18.0687C4.23608 12.0071 9.14991 7.09332 15.2114 7.09332C21.2729 7.09332 26.1868 12.0071 26.1868 18.0687ZM8.46159 18.0687C8.46159 21.7965 11.4836 24.8185 15.2114 24.8185C18.9392 24.8185 21.9613 21.7965 21.9613 18.0687C21.9613 14.3408 18.9392 11.3188 15.2114 11.3188C11.4836 11.3188 8.46159 14.3408 8.46159 18.0687Z" stroke="#244153" stroke-width="20" stroke-linejoin="round" mask="url(#path-1-inside-1)"/>
<rect x="22" y="20" width="20" height="4" rx="2" transform="rotate(-90 22 20)" fill="#244153"/>
<path fill-rule="evenodd" clip-rule="evenodd" d="M26.1867 18.0577C26.185 16.3142 25.7678 14.5837 24.9539 13.0148C23.752 10.6978 21.7636 8.885 19.3457 7.90177C16.9277 6.91853 14.2385 6.82923 11.7607 7.6499C9.28285 8.47056 7.17861 10.1474 5.82562 12.3796C5.15356 13.4884 4.68871 14.6981 4.44236 15.9506H2.11805C0.948282 15.9506 0 16.8989 0 18.0687C0 19.2384 0.948283 20.1867 2.11805 20.1867H4.44236C4.92128 22.622 6.21265 24.8271 8.11056 26.4374C10.1009 28.1262 12.6279 29.0503 15.2381 29.044C17.1389 29.0393 18.9933 28.5415 20.6263 27.6153C21.6413 27.0395 21.7373 25.6845 20.978 24.7983C20.2187 23.9122 18.8881 23.8478 17.8112 24.2973C16.9989 24.6364 16.1217 24.8159 15.2278 24.8181C13.6226 24.822 12.0686 24.2537 10.8446 23.2152C9.89348 22.4081 9.19005 21.3582 8.80287 20.1867H24.0687C24.2991 20.1867 24.5209 20.1499 24.7285 20.0819C25.515 19.9236 26.15 19.3112 26.18 18.4527C26.1844 18.3286 26.1866 18.2046 26.1867 18.0807C26.1868 18.0767 26.1868 18.0727 26.1868 18.0687C26.1868 18.065 26.1868 18.0613 26.1867 18.0577ZM8.80287 15.9506H21.6199C21.508 15.6119 21.3688 15.2809 21.2027 14.9607C20.4635 13.5358 19.2408 12.421 17.7538 11.8164C16.2669 11.2117 14.6131 11.1568 13.0893 11.6615C11.5655 12.1662 10.2715 13.1974 9.43946 14.5701C9.17413 15.0078 8.96132 15.4712 8.80287 15.9506Z" fill="#53C8B7"/>
<path d="M37.1056 14.2351C39.4817 14.2351 41.3264 15.3625 42.6397 17.6171C43.0952 18.5053 43.323 19.4656 43.323 20.498V20.7486C43.1863 21.5229 42.803 21.9101 42.1729 21.9101H33.6439C33.8641 22.6616 34.4828 23.3107 35.5 23.8572C36.0997 24.085 36.6615 24.1989 37.1853 24.1989C37.7926 24.1989 38.5214 23.9863 39.3716 23.5612H39.736C40.4496 23.6978 40.8064 24.0698 40.8064 24.6771V24.8024C40.8064 25.6982 39.6791 26.2941 37.4244 26.5902H37.1056C34.8889 26.5902 33.1125 25.5539 31.7764 23.4815C31.2375 22.5022 30.968 21.4773 30.968 20.407C30.968 18.1447 32.0345 16.3456 34.1677 15.0095C35.2078 14.4932 36.187 14.2351 37.1056 14.2351ZM33.439 19.5643H40.8975C40.8975 19.2834 40.5825 18.7179 39.9524 17.8676C39.1021 17.0629 38.2671 16.6606 37.4472 16.6606H36.9804C35.7354 16.6606 34.7105 17.2755 33.9058 18.5053C33.6249 18.9912 33.4693 19.3442 33.439 19.5643Z" fill="#244153"/>
<path d="M46.4883 20.3386V20.4639C46.4883 22.0201 47.2702 23.1892 48.8341 23.9711C49.3199 24.1533 49.7564 24.2444 50.1436 24.2444H50.4738C51.7643 24.2444 52.8309 23.5953 53.6736 22.2972C53.9772 21.6899 54.1291 21.1092 54.1291 20.555V20.3842C54.1291 18.8887 53.3889 17.7424 51.9086 16.9453C51.3999 16.7175 50.8685 16.6037 50.3144 16.6037H50.2688C48.6974 16.6037 47.5131 17.4235 46.7161 19.0633C46.5642 19.5643 46.4883 19.9894 46.4883 20.3386ZM54.1404 25.292C53.2143 26.1574 51.9921 26.5902 50.4738 26.5902H50.1436C48.0483 26.5902 46.3023 25.5425 44.9055 23.4473C44.3969 22.4301 44.1426 21.409 44.1426 20.3842C44.1426 18.0916 45.2661 16.2734 47.5131 14.9298C48.4697 14.4819 49.4034 14.2579 50.3144 14.2579C52.6449 14.2579 54.4896 15.3966 55.8485 17.674C56.266 18.6078 56.4748 19.5681 56.4748 20.555V25.4856C56.4748 26.0929 56.1028 26.4611 55.3589 26.5902H55.2792C54.7629 26.5902 54.3796 26.2865 54.1291 25.6792V25.5539L54.1404 25.292Z" fill="#244153"/>
<path d="M66.1308 22.525C66.1232 22.3731 65.9676 22.282 65.6639 22.2517C61.8227 21.3938 59.773 20.8473 59.5149 20.6119C58.733 20.0198 58.342 19.2872 58.342 18.4142C58.342 17.2299 59.1695 16.1064 60.8244 15.0436C61.7354 14.5654 62.6349 14.3262 63.5231 14.3262C65.6032 14.3262 67.2467 15.2865 68.4538 17.2072L68.4993 17.6285V17.6968C68.4993 18.3421 68.1121 18.7217 67.3378 18.8355C66.8216 18.8355 66.3433 18.4711 65.903 17.7424C65.2122 17.0667 64.4189 16.7289 63.5231 16.7289C62.3541 16.7289 61.4393 17.2755 60.7789 18.3687L60.7561 18.4825C60.7561 18.6344 61.0825 18.7368 61.7354 18.79C64.9997 19.5795 66.8026 20.0388 67.1442 20.1678C68.078 20.7827 68.5449 21.5608 68.5449 22.5022V22.5363C68.5449 23.8345 67.6263 25.0073 65.7892 26.055C64.9921 26.4118 64.1532 26.5902 63.2726 26.5902C61.4507 26.5902 59.9134 25.7399 58.6609 24.0394C58.5014 23.8117 58.4217 23.5915 58.4217 23.379V23.1285C58.4217 22.5136 58.8392 22.1606 59.6743 22.0695C60.0766 22.0695 60.5511 22.4604 61.0977 23.2423C61.7657 23.8648 62.5476 24.1761 63.4434 24.1761C64.5062 24.1761 65.3868 23.6788 66.0852 22.6844L66.1308 22.525Z" fill="#244153"/>
<path d="M74.6025 21.8873C76.4928 17.2793 77.5138 14.888 77.6657 14.7134C77.9314 14.4932 78.2084 14.3832 78.4969 14.3832C79.2257 14.5198 79.5901 14.8842 79.5901 15.4763V15.5447C79.5597 15.78 78.2426 19.0025 75.6388 25.2123C74.4014 28.2868 73.6878 29.9456 73.498 30.1885C73.3082 30.3327 73.0615 30.4466 72.7578 30.5301C71.9911 30.3631 71.6077 30.0177 71.6077 29.4939V29.3003C71.6077 29.156 72.196 27.6643 73.3727 24.8252L69.615 15.6585V15.5219C69.7592 14.7931 70.1388 14.4287 70.7537 14.4287C71.3686 14.4287 71.8582 15.0284 72.2226 16.2279C73.4524 19.1278 74.2457 21.0143 74.6025 21.8873Z" fill="#244153"/>
<path d="M91.3868 9.60059H91.5918C92.313 9.75241 92.6736 10.0978 92.6736 10.6368V19.1544L92.7191 20.6119C92.7191 21.8114 92.2333 23.0601 91.2616 24.3583C89.8875 25.8462 88.3389 26.5902 86.6156 26.5902H86.274C84.5887 26.5902 83.0249 25.8044 81.5825 24.233C80.6944 22.9804 80.2503 21.6861 80.2503 20.35C80.2503 18.3307 81.146 16.634 82.9376 15.26C84.0763 14.5008 85.2606 14.1213 86.4904 14.1213C88.0694 14.1213 89.3599 14.5692 90.362 15.4649V11.377L90.3165 10.6368C90.5366 9.94599 90.8934 9.60059 91.3868 9.60059ZM82.6074 20.2248V20.4411C82.6074 22.0505 83.4538 23.2499 85.1467 24.0394C85.587 24.1685 85.9894 24.233 86.3537 24.233H86.6156C88.1795 24.233 89.3637 23.3904 90.1684 21.7051C90.2975 21.1965 90.362 20.8055 90.362 20.5322V20.2703C90.362 18.6685 89.5042 17.4691 87.7885 16.672C87.2647 16.5429 86.8586 16.4784 86.5701 16.4784H86.3993C84.8355 16.4784 83.6512 17.3097 82.8465 18.9722C82.6871 19.4353 82.6074 19.8528 82.6074 20.2248Z" fill="#244153"/>
<path d="M99.9497 14.2351C102.326 14.2351 104.17 15.3625 105.484 17.6171C105.939 18.5053 106.167 19.4656 106.167 20.498V20.7486C106.03 21.5229 105.647 21.9101 105.017 21.9101H96.488C96.7081 22.6616 97.3268 23.3107 98.3441 23.8572C98.9438 24.085 99.5056 24.1989 100.029 24.1989C100.637 24.1989 101.365 23.9863 102.216 23.5612H102.58C103.294 23.6978 103.65 24.0698 103.65 24.6771V24.8024C103.65 25.6982 102.523 26.2941 100.269 26.5902H99.9497C97.733 26.5902 95.9566 25.5539 94.6205 23.4815C94.0815 22.5022 93.812 21.4773 93.812 20.407C93.812 18.1447 94.8786 16.3456 97.0118 15.0095C98.0518 14.4932 99.0311 14.2351 99.9497 14.2351ZM96.283 19.5643H103.742C103.742 19.2834 103.427 18.7179 102.796 17.8676C101.946 17.0629 101.111 16.6606 100.291 16.6606H99.8244C98.5794 16.6606 97.5546 17.2755 96.7499 18.5053C96.469 18.9912 96.3134 19.3442 96.283 19.5643Z" fill="#244153"/>
<path d="M108.103 14.1896H108.182C108.79 14.1896 109.283 14.7286 109.663 15.8066L113.01 22.6844C115.478 17.4463 116.814 14.7172 117.019 14.497C117.292 14.2921 117.565 14.1896 117.839 14.1896C118.613 14.3338 119 14.7172 119 15.3397V15.3852C119 15.5826 118.362 17.0022 117.087 19.644L113.887 26.2144C113.553 26.4649 113.261 26.5902 113.01 26.5902H112.976C112.331 26.5902 111.796 25.9752 111.371 24.7454C108.615 19.1202 107.154 16.0609 106.987 15.5674V15.2714C107.123 14.5502 107.495 14.1896 108.103 14.1896Z" fill="#244153"/>
</svg>
